<?xml version="1.0" encoding="UTF-8" standalone="no"?>
<!-- Created with Inkscape (http://www.inkscape.org/) -->
j
<svg
   width="210mm"
   height="296mm"
   viewBox="0 0 210 296"
   version="1.1"
   id="svg1"
   inkscape:version="1.4.2 (f4327f4, 2025-05-13)"
   sodipodi:docname="Zeichnung 2.svg"
   xmlns:inkscape="http://www.inkscape.org/namespaces/inkscape"
   xmlns:sodipodi="http://sodipodi.sourceforge.net/DTD/sodipodi-0.dtd"
   xmlns="http://www.w3.org/2000/svg"
   xmlns:svg="http://www.w3.org/2000/svg">
  <sodipodi:namedview
     id="namedview1"
     pagecolor="#ffffff"
     bordercolor="#111111"
     borderopacity="1"
     inkscape:showpageshadow="0"
     inkscape:pageopacity="0"
     inkscape:pagecheckerboard="1"
     inkscape:deskcolor="#d1d1d1"
     inkscape:document-units="mm"
     inkscape:lockguides="false"
     showguides="true"
     inkscape:zoom="3.4370636"
     inkscape:cx="244.10371"
     inkscape:cy="1082.7556"
     inkscape:window-width="1920"
     inkscape:window-height="1017"
     inkscape:window-x="-8"
     inkscape:window-y="-8"
     inkscape:window-maximized="1"
     inkscape:current-layer="layer1">
    <sodipodi:guide
       position="18.939616,255.38439"
       orientation="0,-1"
       id="guide23"
       inkscape:locked="false" />
  </sodipodi:namedview>
  <defs
     id="defs1">
    <inkscape:path-effect
       effect="fillet_chamfer"
       id="path-effect19"
       is_visible="true"
       lpeversion="1"
       nodesatellites_param="F,0,0,1,0,0,0,1 @ F,0,0,1,0,0,0,1 @ F,0,0,1,0,0,0,1 @ F,0,0,1,0,0,0,1 @ F,0,0,1,0,0,0,1 @ F,0,0,1,0,0,0,1 @ F,0,0,1,0,0,0,1 @ F,0,0,1,0,0,0,1 @ F,0,0,1,0,0,0,1 @ F,0,0,1,0,0,0,1 @ F,0,0,1,0,0,0,1 @ F,0,0,1,0,0,0,1 @ F,0,0,1,0,0,0,1 @ F,0,0,1,0,0,0,1 @ F,0,0,1,0,0,0,1 @ F,0,0,1,0,0,0,1 @ F,0,0,1,0,0,0,1 @ F,0,0,1,0,0,0,1 @ F,0,0,1,0,0,0,1 @ F,0,0,1,0,0,0,1 @ F,0,0,1,0,0,0,1 @ F,0,0,1,0,0,0,1 @ F,0,0,1,0,0,0,1 @ F,0,0,1,0,0,0,1 @ F,0,0,1,0,0,0,1 @ F,0,0,1,0,0,0,1 @ F,0,0,1,0,0,0,1 @ F,0,0,1,0,0,0,1 @ F,0,0,1,0,0,0,1 @ F,0,0,1,0,0,0,1 @ F,0,0,1,0,0,0,1 @ F,0,0,1,0,0,0,1 @ F,0,0,1,0,0,0,1 @ F,0,0,1,0,0,0,1 @ F,0,0,1,0,0,0,1 @ F,0,0,1,0,0,0,1 @ F,0,0,1,0,0,0,1 @ F,0,0,1,0,0,0,1 @ F,0,0,1,0,0,0,1 @ F,0,0,1,0,0,0,1 @ F,0,0,1,0,0,0,1 @ F,0,0,1,0,0,0,1 @ F,0,0,1,0,0,0,1 @ F,0,0,1,0,0,0,1 @ F,0,0,1,0,0,0,1 @ F,0,0,1,0,0,0,1 @ F,0,0,1,0,0,0,1 @ F,0,0,1,0,0,0,1 @ F,0,0,1,0,0,0,1 @ F,0,0,1,0,0,0,1 @ F,0,0,1,0,0,0,1 @ F,0,0,1,0,0,0,1 @ F,0,0,1,0,0,0,1 @ F,0,0,1,0,0,0,1 @ F,0,0,1,0,0,0,1 @ F,0,0,1,0,0,0,1 @ F,0,0,1,0,0,0,1 @ F,0,0,1,0,0,0,1 @ F,0,0,1,0,0,0,1 @ F,0,0,1,0,0,0,1 @ F,0,0,1,0,0,0,1 @ F,0,0,1,0,0,0,1 @ F,0,0,1,0,0,0,1 @ F,0,0,1,0,0,0,1 @ F,0,0,1,0,0,0,1 @ F,0,0,1,0,0,0,1 @ F,0,0,1,0,0,0,1 @ F,0,0,1,0,0,0,1 @ F,0,0,1,0,0,0,1 @ F,0,0,1,0,0,0,1 @ F,0,0,1,0,0,0,1 @ F,0,0,1,0,0,0,1 | F,0,0,1,0,0,0,1 @ F,0,0,1,0,0,0,1 @ F,0,0,1,0,0,0,1 @ F,0,0,1,0,0,0,1 | F,0,0,1,0,0,0,1 @ F,0,0,1,0,0,0,1 @ F,0,0,1,0,0,0,1 @ F,0,0,1,0,0,0,1 @ F,0,0,1,0,0,0,1 @ F,0,0,1,0,0,0,1 | F,0,0,1,0,0,0,1 @ F,0,0,1,0,0,0,1 @ F,0,0,1,0,0,0,1 @ F,0,0,1,0,0,0,1 | F,0,0,1,0,0,0,1 @ F,0,0,1,0,0,0,1 @ F,0,0,1,0,0,0,1 @ F,0,0,1,0,0,0,1 @ F,0,0,1,0,0,0,1 @ F,0,0,1,0,0,0,1 @ F,0,0,1,0,0,0,1 @ F,0,0,1,0,0,0,1 @ F,0,0,1,0,0,0,1 @ F,0,0,1,0,0,0,1 | F,0,0,1,0,0,0,1 @ F,0,0,1,0,0,0,1 @ F,0,0,1,0,0,0,1 @ F,0,0,1,0,0,0,1 @ F,0,0,1,0,0,0,1 @ F,0,0,1,0,0,0,1 @ F,0,0,1,0,0,0,1 @ F,0,0,1,0,0,0,1 @ F,0,0,1,0,0,0,1 @ F,0,0,1,0,0,0,1 @ F,0,0,1,0,0,0,1 @ F,0,0,1,0,0,0,1 @ F,0,0,1,0,0,0,1 @ F,0,0,1,0,0,0,1 @ F,0,0,1,0,0,0,1 @ F,0,0,1,0,0,0,1 @ F,0,0,1,0,0,0,1 @ F,0,0,1,0,0,0,1 @ F,0,0,1,0,0,0,1 @ F,0,0,1,0,0,0,1 @ F,0,0,1,0,0,0,1 @ F,0,0,1,0,0,0,1 @ F,0,0,1,0,0,0,1 | F,0,0,1,0,0,0,1 @ F,0,0,1,0,0,0,1 @ F,0,0,1,0,0,0,1 @ F,0,0,1,0,0,0,1 @ F,0,0,1,0,0,0,1 @ F,0,0,1,0,0,0,1 @ F,0,0,1,0,0,0,1 @ F,0,0,1,0,0,0,1 @ F,0,0,1,0,0,0,1 @ F,0,0,1,0,0,0,1 @ F,0,0,1,0,0,0,1 @ F,0,0,1,0,0,0,1 @ F,0,0,1,0,0,0,1 @ F,0,0,1,0,0,0,1 @ F,0,0,1,0,0,0,1 @ F,0,0,1,0,0,0,1 @ F,0,0,1,0,0,0,1 @ F,0,0,1,0,0,0,1 @ F,0,0,1,0,0,0,1 @ F,0,0,1,0,0,0,1 @ F,0,0,1,0,0,0,1 @ F,0,0,1,0,0,0,1 @ F,0,0,1,0,0,0,1 | F,0,0,1,0,0,0,1 @ F,0,0,1,0,0,0,1 @ F,0,0,1,0,0,0,1 @ F,0,0,1,0,0,0,1 @ F,0,0,1,0,0,0,1 @ F,0,0,1,0,0,0,1 @ F,0,0,1,0,0,0,1 @ F,0,0,1,0,0,0,1 | F,0,0,1,0,0,0,1 @ F,0,0,1,0,0,0,1 @ F,0,0,1,0,0,0,1 @ F,0,0,1,0,0,0,1 @ F,0,0,1,0,0,0,1 @ F,0,0,1,0,0,0,1 @ F,0,0,1,0,0,0,1 @ F,0,0,1,0,0,0,1 @ F,0,0,1,0,0,0,1 @ F,0,0,1,0,0,0,1 @ F,0,0,1,0,0,0,1 @ F,0,0,1,0,0,0,1 @ F,0,0,1,0,0,0,1 @ F,0,0,1,0,0,0,1 @ F,0,0,1,0,0,0,1 @ F,0,0,1,0,0,0,1 @ F,0,0,1,0,0,0,1 @ F,0,0,1,0,0,0,1 @ F,0,0,1,0,0,0,1 @ F,0,0,1,0,0,0,1 @ F,0,0,1,0,0,0,1 @ F,0,0,1,0,0,0,1 @ F,0,0,1,0,0,0,1 @ F,0,0,1,0,0,0,1 @ F,0,0,1,0,0,0,1 @ F,0,0,1,0,0,0,1 @ F,0,0,1,0,0,0,1 @ F,0,0,1,0,0,0,1 @ F,0,0,1,0,0,0,1 @ F,0,0,1,0,0,0,1 @ F,0,0,1,0,0,0,1 | F,0,0,1,0,0.92978575,0,1 @ F,0,0,1,0,0.80072574,0,1 @ F,0,0,1,0,0.98752035,0,1 @ F,0,0,1,0,0.85846035,0,1 | F,0,0,1,0,0.92983795,0,1 @ F,0,0,1,0,0.86601903,0,1 @ F,0,0,1,0,0.98757255,0,1 @ F,0,0,1,0,0.85845935,0,1"
       radius="0"
       unit="px"
       method="auto"
       mode="F"
       chamfer_steps="1"
       flexible="false"
       use_knot_distance="true"
       apply_no_radius="true"
       apply_with_radius="true"
       only_selected="false"
       hide_knots="false" />
    <rect
       x="357.45571"
       y="794.73463"
       width="29.213647"
       height="20.161531"
       id="rect9" />
    <rect
       x="357.45571"
       y="794.63177"
       width="20.881586"
       height="15.121148"
       id="rect8" />
    <linearGradient
       id="linearGradient26"
       inkscape:swatch="gradient">
      <stop
         style="stop-color:#000000;stop-opacity:1;"
         offset="0"
         id="stop27" />
      <stop
         style="stop-color:#000000;stop-opacity:0;"
         offset="1"
         id="stop28" />
    </linearGradient>
    <linearGradient
       id="swatch26"
       inkscape:swatch="solid">
      <stop
         style="stop-color:#000000;stop-opacity:1;"
         offset="0"
         id="stop26" />
    </linearGradient>
  </defs>
  <g
     inkscape:label="Ebene 1"
     inkscape:groupmode="layer"
     id="layer1">
    <path
       d="m 84.733929,210.37945 v 2.73049 h -4.515222 v -2.73049 H 72.80239 v 2.73979 h -4.53251 v -2.73979 h -7.407919 v 2.73979 H 56.32945 v -2.73979 h -7.408399 v 2.73877 H 44.38952 v -2.73877 l -12.223663,-0.004 0.0168,15.40095 2.712356,-0.0281 0.01352,4.70161 -2.725874,0.0142 0.02704,7.78157 2.712354,0.0142 v 4.6734 l -2.725873,0.0283 -10e-7,7.78159 2.739395,0.0282 0.02704,4.64521 -2.766433,0.0281 -0.02705,7.79569 2.779951,-0.0423 -0.02704,4.71575 -2.712354,0.0141 0.01352,12.18943 12.165819,-0.0169 v -2.73982 h 4.532505 v 2.73982 h 7.407912 v -2.73982 h 4.53252 v 2.73982 h 7.407919 v -2.73982 h 4.53251 v 2.73982 h 7.407928 v -2.73982 h 4.53249 v 2.73982 h 14.324173 v -14.99224 h -2.617709 v -4.74391 h 2.617709 v -7.7534 h -2.617709 v -4.74384 h 2.617709 v -7.75343 h -2.617709 v -4.74391 h 2.617709 v -7.7534 h -2.617709 v -4.74392 h 2.617709 v -12.4927 z"
       style="fill:none;stroke:#000000;stroke-width:0.257995"
       id="path48"
       sodipodi:nodetypes="ccccccccccccccccccccccccccccccccccccccccccccccccccccccccccccccccccccc" />
    <path
       d="m 130.57257,207.5801 v 2.73939 h -11.97764 v 9.77312 h 0.005 v 0.0134 h -2.61958 v 4.7181 h 2.61958 v 0.0134 h -0.005 v 7.78409 h -2.62626 v 4.70569 h 2.62626 v 7.75876 h -2.6242 v 4.71035 h 2.6242 v 7.79131 h -2.64221 v 4.70932 h 2.64221 v 17.76392 h 66.77277 v -17.70708 h -4.76133 v -4.88811 h 4.76133 v -7.54741 h -4.99793 v -4.88811 h 4.99793 v -7.67349 h -4.92386 v -4.88812 h 4.92386 v -7.57118 h -4.96192 v -4.88863 h 4.96192 v -9.68941 h -14.37863 v -2.73216 h -4.5026 v 2.73216 h -7.46218 v -2.73629 h -4.51032 v 2.73629 h -7.45652 v -2.73836 h -4.51444 v 2.73836 h -7.45291 v -2.73939 z m 7.59076,8.65329 h 3.01203 a 0.98295632,0.98758079 0 0 1 0.98292,0.98754 v 2.88202 a 0.86197098,0.86602626 0 0 1 -0.86205,0.86611 h -3.06192 a 0.92549159,0.92984571 0 0 1 -0.92531,-0.93019 v -2.94713 a 0.85444664,0.85846651 0 0 1 0.85433,-0.85835 z m -11.32287,0.1633 h 3.01151 a 0.98290437,0.98752859 0 0 1 0.98292,0.98754 v 2.94713 a 0.79698289,0.80073242 0 0 1 -0.79724,0.80099 h -3.12621 a 0.92543964,0.92979351 0 0 1 -0.92531,-0.93018 v -2.94713 a 0.85444763,0.85846751 0 0 1 0.85433,-0.85835 z m 1.86606,6.09115 c 0.0613,0 0.11703,0.005 0.16767,0.016 0.0514,0.01 0.099,0.0225 0.14248,0.0372 0.0514,0.0177 0.0926,0.0344 0.12396,0.0506 0.0321,0.0162 0.0677,0.0337 0.10698,0.0522 v 0.26872 h -0.0149 c -0.0777,-0.0756 -0.16133,-0.13222 -0.25049,-0.17002 -0.0892,-0.0378 -0.18448,-0.0568 -0.28649,-0.0568 -0.0742,0 -0.14486,0.0133 -0.21191,0.0403 -0.0663,0.0277 -0.12443,0.0705 -0.17437,0.12765 -0.0478,0.0548 -0.0871,0.12571 -0.11778,0.21291 -0.03,0.0872 -0.0447,0.19149 -0.0447,0.31264 0,0.11575 0.0135,0.21741 0.0406,0.30541 0.0278,0.0887 0.066,0.16172 0.11521,0.21962 0.0506,0.0594 0.10811,0.10346 0.17231,0.13126 0.0649,0.0286 0.138,0.0424 0.2186,0.0424 0.0984,0 0.1904,-0.018 0.27672,-0.0543 0.0863,-0.0363 0.17355,-0.0941 0.26129,-0.17363 h 0.016 v 0.27234 c -0.10415,0.0563 -0.19884,0.0954 -0.28444,0.11782 -0.0849,0.0224 -0.17003,0.0336 -0.25563,0.0336 -0.11698,0 -0.22363,-0.0195 -0.31992,-0.0589 -0.0956,-0.0393 -0.17759,-0.0967 -0.24535,-0.17157 -0.0699,-0.0772 -0.12338,-0.17182 -0.16048,-0.28371 -0.0371,-0.11189 -0.0555,-0.23834 -0.0555,-0.38033 0,-0.1497 0.0191,-0.28137 0.0576,-0.39481 0.0385,-0.11266 0.092,-0.20576 0.16048,-0.27906 0.0699,-0.0749 0.15222,-0.12987 0.24637,-0.16537 0.0949,-0.0347 0.20026,-0.0522 0.31581,-0.0522 z m -1.49727,0.8599 c 0.12055,0 0.22226,0.0449 0.30501,0.13436 0.0828,0.0895 0.12395,0.19902 0.12395,0.32866 0,0.12964 -0.0412,0.23918 -0.12395,0.32868 -0.082,0.0896 -0.18375,0.13435 -0.30501,0.13435 -0.12056,0 -0.22227,-0.0449 -0.30501,-0.13435 -0.0827,-0.0895 -0.12396,-0.19904 -0.12396,-0.32868 0,-0.13041 0.0412,-0.24019 0.12396,-0.32969 0.0827,-0.0887 0.18445,-0.13333 0.30501,-0.13333 z m 11.46432,0.69195 h 0.24637 c 0.009,0.14809 0.0383,0.25522 0.0874,0.32092 0.0492,0.0664 0.11996,0.0997 0.21243,0.0997 0.0492,0 0.0962,-0.0125 0.14144,-0.0367 0.0452,-0.0242 0.11777,-0.0834 0.21809,-0.17777 0.0826,-0.0771 0.1602,-0.13051 0.23197,-0.16071 0.0718,-0.0294 0.1539,-0.0444 0.24637,-0.0444 0.0984,0 0.17939,0.0168 0.24329,0.0501 0.0639,0.0332 0.11827,0.0787 0.16356,0.13694 0.0442,0.0567 0.0765,0.12129 0.0962,0.19379 0.0206,0.0725 0.032,0.14637 0.034,0.22117 h -0.24637 c -0.003,-0.12768 -0.0285,-0.22962 -0.0766,-0.30592 -0.0472,-0.0763 -0.12142,-0.11472 -0.22272,-0.11472 -0.06,0 -0.11545,0.0172 -0.16562,0.0512 -0.0502,0.0348 -0.11425,0.0888 -0.19288,0.16278 -0.0836,0.0785 -0.1623,0.13253 -0.23506,0.16123 -0.0718,0.0294 -0.15336,0.0439 -0.24483,0.0439 -0.0944,0 -0.1754,-0.0169 -0.24328,-0.0517 -0.0679,-0.034 -0.12281,-0.079 -0.16511,-0.13488 -0.0432,-0.0582 -0.0755,-0.12353 -0.0962,-0.19533 -0.0197,-0.071 -0.0304,-0.14403 -0.0324,-0.21964 z m -0.055,0.99168 h 0.24637 c 0.009,0.14808 0.0383,0.25522 0.0874,0.32092 0.0492,0.0665 0.11996,0.0997 0.21243,0.0997 0.0492,0 0.0962,-0.012 0.14144,-0.0362 0.0452,-0.0242 0.11828,-0.0839 0.2186,-0.17829 0.0826,-0.077 0.1597,-0.13052 0.23146,-0.16072 0.0718,-0.0294 0.15391,-0.0444 0.24637,-0.0444 0.0983,0 0.17939,0.0169 0.24329,0.0501 0.0639,0.0332 0.11879,0.0787 0.16408,0.13695 0.0442,0.0567 0.076,0.12129 0.0957,0.19379 0.0206,0.0725 0.032,0.14638 0.0339,0.22118 h -0.24638 c -0.003,-0.12768 -0.0285,-0.22963 -0.0766,-0.30593 -0.0472,-0.0763 -0.12141,-0.11473 -0.22271,-0.11473 -0.06,0 -0.11546,0.0172 -0.16562,0.0512 -0.0502,0.0348 -0.11425,0.0893 -0.19288,0.1633 -0.0836,0.0786 -0.16179,0.13201 -0.23454,0.16071 -0.0718,0.0294 -0.15336,0.0444 -0.24483,0.0444 -0.0944,0 -0.17592,-0.0174 -0.2438,-0.0522 -0.0679,-0.034 -0.12281,-0.079 -0.16511,-0.13487 -0.0433,-0.0582 -0.075,-0.12302 -0.0957,-0.19482 -0.0197,-0.071 -0.0309,-0.14465 -0.0329,-0.22015 z m -11.25807,28.3365 c 2.14199,1.8e-4 3.87829,1.74488 3.87819,3.89695 1e-4,2.15207 -1.7362,3.89676 -3.87819,3.89695 -2.14219,1e-4 -3.87881,-1.74468 -3.87871,-3.89695 -1e-4,-2.15228 1.73652,-3.89706 3.87871,-3.89695 z m 8.77016,0.60823 h 0.68254 v 5.62193 l 2.60363,-5.62193 h 0.90371 v 6.28443 H 139.638 v -5.13255 l -2.37475,5.13255 h -1.13259 z m 2.82017,11.40199 c 0.38393,0.003 0.76521,0.0708 1.13054,0.20205 -1.68498,0.44972 -2.8738,2.12384 -2.87624,4.05044 0.003,1.81661 1.06363,3.42198 2.62164,3.9693 -0.28667,0.0787 -0.58068,0.11942 -0.87594,0.12144 -2.07236,7e-5 -3.75233,-1.86782 -3.75217,-4.17188 9e-5,-2.30386 1.68,-4.17143 3.75217,-4.17135 z m -11.69886,0.81443 c 2.14219,-10e-5 3.8788,1.74467 3.8787,3.89695 -1.8e-4,2.15207 -1.73671,3.89653 -3.8787,3.89643 -2.14179,-1.9e-4 -3.87801,-1.74456 -3.87819,-3.89643 -1e-4,-2.15207 1.7362,-3.89677 3.87819,-3.89695 z"
       style="fill:none;stroke:#000000;stroke-width:0.25834"
       id="path45" />
    <path
       d="M 189.06712,130.60991 H 171.3433 v -2.65463 h -4.69868 v 2.65463 h -7.77374 v -2.63654 h -4.69971 v 2.63654 h -7.74125 v -2.63861 h -4.69508 v 2.63861 h -7.76651 v 0.005 h -0.0134 v -2.63189 h -4.70744 v 2.63189 h -0.0134 v -0.005 h -9.75107 v 12.03395 h -2.73372 v 4.53823 h 2.73372 v 7.48847 h -2.73217 v 4.53514 h 2.73217 v 7.49209 h -2.73011 v 4.53101 h 2.73011 v 7.49776 h -2.72598 v 4.52377 h 2.72598 v 14.44621 h 9.72529 v -2.63655 h 0.0145 v -2.09031 h 4.69662 v 2.09031 h 0.0238 v 2.63655 h 7.73815 v -2.63655 h 0.0217 v -2.08308 h 4.676 v 2.08308 h 0.0366 v 2.63655 h 7.73867 v -0.0289 h -0.0191 v -4.69172 h 4.7188 v 2.08411 h 0.0345 v 2.63655 h 7.73816 v -2.63655 h 0.0299 v -2.08204 h 4.75334 v 4.68759 h -0.0485 v 0.031 h 17.70563 z m -61.4675,56.23453 v 4.73565 h -4.86111 v -4.73565 z"
       style="fill:none;stroke:#000000;stroke-width:0.258654"
       id="path17"
       sodipodi:nodetypes="cccccccccccccccccccccccccccccccccccccccccccccccccccccccccccccccccccccccccccccc" />
    <path
       d="m 32.614577,51.678355 v 17.763819 h -2.651338 v 4.709281 h 2.651338 v 7.791277 h -2.63379 v 4.710309 h 2.63379 v 7.758718 h -2.635854 v 4.706191 h 2.635854 v 7.78404 h 0.0046 v 0.0134 h -2.628628 v 4.71755 h 2.628626 v 0.0134 h -0.0046 v 9.77358 h 12.019023 v 2.73937 h 4.532619 v -2.73937 h 7.47918 v 2.73782 h 4.529528 v -2.73782 h 7.48228 v 2.73575 h 4.52591 v -2.73575 h 7.48847 v 2.73162 h 4.51765 v -2.73162 h 14.42881 v -9.74774 h -2.6338 v -0.0227 h -2.07379 v -4.68654 h 2.07379 v -0.0357 h 2.6338 V 99.1711 h -2.6338 v -0.0475 h -2.09236 v -4.686551 h 2.09236 v -0.0109 h 2.6338 v -7.755617 h -2.6338 v -0.0326 h -2.09081 v -4.68655 h 2.09081 v -0.0264 h 2.6338 v -7.755617 h -2.6338 v -0.0289 h -2.07739 v -4.686551 h 2.07739 v -0.03 h 2.6338 V 51.678356 Z m 27.166288,60.171665 h 12.75657 v 5.77226 h -12.75657 z"
       style="fill:none;stroke:#000000;stroke-width:0.258785"
       id="path19" />
    <path
       d="m 67.788657,192.11477 h 27.01385 v -19.74918 h -27.01385 z"
       style="fill:none;stroke:#28220b;stroke-width:0.25114;stroke-linejoin:bevel"
       id="path16" />
    <text
       xml:space="preserve"
       transform="scale(0.26458333)"
       id="text8"
       style="fill:#000000;text-orientation:auto;stroke-width:1.0015748;stroke-linejoin:bevel;stroke:#28220b;text-align:start;writing-mode:lr-tb;direction:ltr;white-space:pre;shape-inside:url(#rect8)" />
    <text
       xml:space="preserve"
       transform="scale(0.26458333)"
       id="text9"
       style="fill:#000000;text-orientation:auto;stroke-width:1.0015748;stroke-linejoin:bevel;stroke:#28220b;text-align:start;writing-mode:lr-tb;direction:ltr;white-space:pre;shape-inside:url(#rect9)" />
    <path
       d="m 30.980792,197.74206 h 17.763732 v 2.65779 h 4.709259 v -2.65779 h 7.791243 v 2.63969 h 4.710291 v -2.63969 h 7.758684 v 2.64177 h 4.705649 v -2.64177 h 7.784002 v -0.005 h 0.0134 v 2.63502 h 4.718042 v -2.63502 h 0.0134 v 0.005 h 9.773026 v -12.04829 h 2.73988 v -4.54365 h -2.73988 v -7.49738 h 2.73833 v -4.54057 h -2.73833 v -7.50101 h 2.73626 v -4.5364 h -2.73626 v -7.5067 h 2.73213 v -4.52917 h -2.73213 v -14.46342 h -9.747186 v 2.63968 h -0.0145 v 2.0928 h -4.7072 v -2.0928 h -0.0238 v -2.63968 H 78.47325 v 2.63968 h -0.0217 v 2.08557 h -4.686529 v -2.08557 h -0.0367 v -2.63968 h -7.756093 v 0.029 h 0.0191 v 4.69731 h -4.729421 v -2.08661 h -0.0346 v -2.63968 h -7.755585 v 2.63968 h -0.03 v 2.08454 h -4.76404 v -4.69318 h 0.0486 v -0.0311 h -17.74549 z m 61.605917,-56.30157 v -4.74129 h 4.87205 v 4.74129 z"
       style="fill:none;stroke:#000000;stroke-width:0.259099"
       id="path17-1"
       sodipodi:nodetypes="cccccccccccccccccccccccccccccccccccccccccccccccccccccccccccccccccccccccccccccc" />
  </g>
</svg>
